<mxfile host="app.diagrams.net" agent="Mozilla/5.0 (Windows NT 10.0; Win64; x64) AppleWebKit/537.36 (KHTML, like Gecko) Chrome/138.0.0.0 Safari/537.36 Edg/138.0.0.0" version="28.0.6">
  <diagram name="페이지-1" id="Ergwtt7QMmHygPT3tksS">
    <mxGraphModel dx="1906" dy="827" grid="1" gridSize="10" guides="1" tooltips="1" connect="1" arrows="1" fold="1" page="1" pageScale="1" pageWidth="413" pageHeight="583" math="0" shadow="0">
      <root>
        <mxCell id="0" />
        <mxCell id="1" parent="0" />
        <mxCell id="TQmkTcRnGZ25kYvwmfEw-1" value="" style="rounded=0;whiteSpace=wrap;html=1;" vertex="1" parent="1">
          <mxGeometry x="-110" y="260" width="170" height="90" as="geometry" />
        </mxCell>
        <mxCell id="TQmkTcRnGZ25kYvwmfEw-8" value="" style="line;strokeWidth=2;direction=south;html=1;" vertex="1" parent="1">
          <mxGeometry x="-60" y="350" width="70" height="500" as="geometry" />
        </mxCell>
        <mxCell id="TQmkTcRnGZ25kYvwmfEw-17" value="" style="rounded=0;whiteSpace=wrap;html=1;" vertex="1" parent="1">
          <mxGeometry x="210" y="260" width="170" height="90" as="geometry" />
        </mxCell>
        <mxCell id="TQmkTcRnGZ25kYvwmfEw-18" value="" style="rounded=0;whiteSpace=wrap;html=1;" vertex="1" parent="1">
          <mxGeometry x="820" y="260" width="170" height="90" as="geometry" />
        </mxCell>
        <mxCell id="TQmkTcRnGZ25kYvwmfEw-19" value="" style="rounded=0;whiteSpace=wrap;html=1;" vertex="1" parent="1">
          <mxGeometry x="510" y="260" width="170" height="90" as="geometry" />
        </mxCell>
        <mxCell id="TQmkTcRnGZ25kYvwmfEw-20" value="" style="line;strokeWidth=2;direction=south;html=1;" vertex="1" parent="1">
          <mxGeometry x="290" y="350" width="10" height="500" as="geometry" />
        </mxCell>
        <mxCell id="TQmkTcRnGZ25kYvwmfEw-21" value="" style="line;strokeWidth=2;direction=south;html=1;" vertex="1" parent="1">
          <mxGeometry x="590" y="350" width="10" height="500" as="geometry" />
        </mxCell>
        <mxCell id="TQmkTcRnGZ25kYvwmfEw-22" value="" style="line;strokeWidth=2;direction=south;html=1;" vertex="1" parent="1">
          <mxGeometry x="900" y="350" width="10" height="500" as="geometry" />
        </mxCell>
        <mxCell id="TQmkTcRnGZ25kYvwmfEw-23" value="Actor" style="shape=umlActor;verticalLabelPosition=bottom;verticalAlign=top;html=1;outlineConnect=0;" vertex="1" parent="1">
          <mxGeometry x="-400" y="225" width="120" height="160" as="geometry" />
        </mxCell>
        <mxCell id="TQmkTcRnGZ25kYvwmfEw-24" value="&lt;font style=&quot;font-size: 24px;&quot;&gt;템플릿&lt;/font&gt;" style="text;html=1;align=center;verticalAlign=middle;resizable=0;points=[];autosize=1;strokeColor=none;fillColor=none;" vertex="1" parent="1">
          <mxGeometry x="-70" y="285" width="90" height="40" as="geometry" />
        </mxCell>
        <mxCell id="TQmkTcRnGZ25kYvwmfEw-25" value="&lt;font style=&quot;font-size: 24px;&quot;&gt;뷰&lt;/font&gt;" style="text;html=1;align=center;verticalAlign=middle;resizable=0;points=[];autosize=1;strokeColor=none;fillColor=none;" vertex="1" parent="1">
          <mxGeometry x="270" y="285" width="50" height="40" as="geometry" />
        </mxCell>
        <mxCell id="TQmkTcRnGZ25kYvwmfEw-26" value="&lt;font style=&quot;font-size: 24px;&quot;&gt;모델&lt;/font&gt;" style="text;html=1;align=center;verticalAlign=middle;resizable=0;points=[];autosize=1;strokeColor=none;fillColor=none;" vertex="1" parent="1">
          <mxGeometry x="560" y="285" width="70" height="40" as="geometry" />
        </mxCell>
        <mxCell id="TQmkTcRnGZ25kYvwmfEw-27" value="&lt;font style=&quot;font-size: 24px;&quot;&gt;DB&lt;/font&gt;" style="text;html=1;align=center;verticalAlign=middle;resizable=0;points=[];autosize=1;strokeColor=none;fillColor=none;" vertex="1" parent="1">
          <mxGeometry x="875" y="285" width="60" height="40" as="geometry" />
        </mxCell>
        <mxCell id="TQmkTcRnGZ25kYvwmfEw-34" value="" style="line;strokeWidth=2;direction=south;html=1;" vertex="1" parent="1">
          <mxGeometry x="-375" y="410" width="70" height="440" as="geometry" />
        </mxCell>
        <mxCell id="TQmkTcRnGZ25kYvwmfEw-35" value="" style="html=1;shadow=0;dashed=0;align=center;verticalAlign=middle;shape=mxgraph.arrows2.arrow;dy=0.6;dx=40;notch=0;" vertex="1" parent="1">
          <mxGeometry x="-340" y="440" width="630" height="30" as="geometry" />
        </mxCell>
        <mxCell id="TQmkTcRnGZ25kYvwmfEw-36" value="" style="html=1;shadow=0;dashed=0;align=center;verticalAlign=middle;shape=mxgraph.arrows2.arrow;dy=0.6;dx=40;flipH=1;notch=0;" vertex="1" parent="1">
          <mxGeometry x="300" y="660" width="290" height="30" as="geometry" />
        </mxCell>
        <mxCell id="TQmkTcRnGZ25kYvwmfEw-38" value="회원 검색 시도&lt;div&gt;(GET/members?search 발생)&lt;/div&gt;" style="text;html=1;align=center;verticalAlign=middle;resizable=0;points=[];autosize=1;strokeColor=#6c8ebf;fillColor=#dae8fc;" vertex="1" parent="1">
          <mxGeometry x="-275" y="410" width="180" height="40" as="geometry" />
        </mxCell>
        <mxCell id="TQmkTcRnGZ25kYvwmfEw-41" value="" style="html=1;shadow=0;dashed=0;align=center;verticalAlign=middle;shape=mxgraph.arrows2.arrow;dy=0.6;dx=40;notch=0;" vertex="1" parent="1">
          <mxGeometry x="300" y="470" width="290" height="30" as="geometry" />
        </mxCell>
        <mxCell id="TQmkTcRnGZ25kYvwmfEw-42" value="데이터 요청&lt;div&gt;(func MembersView, view.py line 83&lt;span style=&quot;background-color: transparent; color: light-dark(rgb(0, 0, 0), rgb(255, 255, 255));&quot;&gt;)&lt;/span&gt;&lt;/div&gt;" style="text;html=1;align=center;verticalAlign=middle;resizable=0;points=[];autosize=1;strokeColor=none;fillColor=none;" vertex="1" parent="1">
          <mxGeometry x="310" y="493" width="220" height="40" as="geometry" />
        </mxCell>
        <mxCell id="TQmkTcRnGZ25kYvwmfEw-43" value="" style="html=1;shadow=0;dashed=0;align=center;verticalAlign=middle;shape=mxgraph.arrows2.arrow;dy=0.6;dx=40;notch=0;" vertex="1" parent="1">
          <mxGeometry x="600" y="520" width="300" height="30" as="geometry" />
        </mxCell>
        <mxCell id="TQmkTcRnGZ25kYvwmfEw-47" value="&lt;div&gt;SQL&amp;nbsp;&lt;span style=&quot;background-color: transparent; color: light-dark(rgb(0, 0, 0), rgb(255, 255, 255));&quot;&gt;필터링 요청&lt;/span&gt;&lt;/div&gt;" style="text;html=1;align=center;verticalAlign=middle;resizable=0;points=[];autosize=1;strokeColor=none;fillColor=none;" vertex="1" parent="1">
          <mxGeometry x="695" y="550" width="110" height="30" as="geometry" />
        </mxCell>
        <mxCell id="TQmkTcRnGZ25kYvwmfEw-48" value="" style="html=1;shadow=0;dashed=0;align=center;verticalAlign=middle;shape=mxgraph.arrows2.arrow;dy=0.6;dx=40;flipH=1;notch=0;" vertex="1" parent="1">
          <mxGeometry x="-20" y="750" width="310" height="30" as="geometry" />
        </mxCell>
        <mxCell id="TQmkTcRnGZ25kYvwmfEw-49" value="템플릿 렌더링 요청" style="text;html=1;align=center;verticalAlign=middle;resizable=0;points=[];autosize=1;strokeColor=none;fillColor=none;" vertex="1" parent="1">
          <mxGeometry x="75" y="720" width="120" height="30" as="geometry" />
        </mxCell>
        <mxCell id="TQmkTcRnGZ25kYvwmfEw-50" value="" style="html=1;shadow=0;dashed=0;align=center;verticalAlign=middle;shape=mxgraph.arrows2.arrow;dy=0.6;dx=40;flipH=1;notch=0;" vertex="1" parent="1">
          <mxGeometry x="-340" y="800" width="630" height="30" as="geometry" />
        </mxCell>
        <mxCell id="TQmkTcRnGZ25kYvwmfEw-51" value="검색 응답, 기세판 내 회원 정보 출력&lt;div&gt;(members.html로 응답 반환)&lt;/div&gt;" style="text;html=1;align=center;verticalAlign=middle;resizable=0;points=[];autosize=1;strokeColor=none;fillColor=none;" vertex="1" parent="1">
          <mxGeometry x="-285" y="765" width="200" height="40" as="geometry" />
        </mxCell>
        <mxCell id="TQmkTcRnGZ25kYvwmfEw-52" value="" style="html=1;shadow=0;dashed=0;align=center;verticalAlign=middle;shape=mxgraph.arrows2.arrow;dy=0.6;dx=40;notch=0;" vertex="1" parent="1">
          <mxGeometry x="600" y="380" width="300" height="30" as="geometry" />
        </mxCell>
        <mxCell id="TQmkTcRnGZ25kYvwmfEw-53" value="회원가입된 정보 저장" style="text;html=1;align=center;verticalAlign=middle;resizable=0;points=[];autosize=1;strokeColor=none;fillColor=none;" vertex="1" parent="1">
          <mxGeometry x="670" y="355" width="130" height="30" as="geometry" />
        </mxCell>
        <mxCell id="TQmkTcRnGZ25kYvwmfEw-54" value="DB 내의 검색결과 전달&lt;div&gt;(QuerySet 전달)&lt;/div&gt;" style="text;html=1;align=center;verticalAlign=middle;resizable=0;points=[];autosize=1;strokeColor=none;fillColor=none;" vertex="1" parent="1">
          <mxGeometry x="375" y="685" width="140" height="40" as="geometry" />
        </mxCell>
        <mxCell id="TQmkTcRnGZ25kYvwmfEw-59" value="" style="html=1;shadow=0;dashed=0;align=center;verticalAlign=middle;shape=mxgraph.arrows2.arrow;dy=0.6;dx=40;flipH=1;notch=0;" vertex="1" parent="1">
          <mxGeometry x="600" y="585" width="300" height="30" as="geometry" />
        </mxCell>
        <mxCell id="TQmkTcRnGZ25kYvwmfEw-60" value="검색&amp;nbsp;&lt;span style=&quot;background-color: transparent; color: light-dark(rgb(0, 0, 0), rgb(255, 255, 255));&quot;&gt;결과 리스트&lt;/span&gt;" style="text;html=1;align=center;verticalAlign=middle;resizable=0;points=[];autosize=1;strokeColor=none;fillColor=none;" vertex="1" parent="1">
          <mxGeometry x="695" y="608" width="110" height="30" as="geometry" />
        </mxCell>
      </root>
    </mxGraphModel>
  </diagram>
</mxfile>
